<svg width="850" height="850" xmlns="http://www.w3.org/2000/svg">
  <path d="M45,125 h760 a20,20 0 0 1 20,20 v80 h-800 v-80 a20,20 0 0 1 20,-20 z" fill="#0e4a85" />
  <circle cx="775" cy="175" r="25" fill="#3286d2" />
  <circle cx="700" cy="175" r="25" fill="#3286d2" />
  <circle cx="625" cy="175" r="25" fill="#3286d2" />

  <path d="M25,225 h800 v480 a20,20 0 0 1 -20,20 h-760 a20,20 0 0 1 -20,-20 v-480 z" fill="#07305a" />

  <rect x="75" y="275" width="200" height="20" fill="#86bef5" />
  <rect x="300" y="275" width="50" height="20" fill="#86bef5" />
  <rect x="375" y="275" width="150" height="20" fill="#86bef5" />

  <rect x="75" y="320" width="150" height="20" fill="#86bef5" />
  <rect x="250" y="320" width="175" height="20" fill="#86bef5" />
  <rect x="450" y="320" width="175" height="20" fill="#86bef5" />

  <rect x="75" y="365" width="325" height="20" fill="#86bef5" />
  <rect x="425" y="365" width="50" height="20" fill="#86bef5" />

  <rect x="75" y="410" width="100" height="20" fill="#86bef5" />
  <rect x="200" y="410" width="125" height="20" fill="#86bef5" />
  <rect x="350" y="410" width="175" height="20" fill="#86bef5" />

  <path transform="translate(425, 400)" d="M127.754,284.526c-6.127,0-11.429-2.728-12.672-8.723L97.911,193.6l-11.308,19.514c-2.321,3.949-6.567,6.743-11.132,6.743H12.936 C5.797,219.857,0,214.06,0,206.943c0-7.15,5.797-12.958,12.936-12.958h55.143l24.585-41.547c2.717-4.587,7.931-7.084,13.255-6.182 c5.269,0.88,9.46,4.906,10.538,10.131l10.395,50.226l23.705-131.516c1.111-6.16,6.468-10.439,12.738-10.439c0.011,0,0.044,0,0.055,0 c6.281,0,11.638,4.356,12.694,10.538l25.3,147.631l8.14-20.625c1.936-4.95,6.71-8.239,12.023-8.239H336.27 c7.139,0,12.936,5.786,12.936,12.947c0,7.128-5.786,12.936-12.936,12.936h-105.985l-21.89,55.319c-2.112,5.39-7.502,8.657-13.365,8.107 c-5.742-0.616-10.417-4.972-11.407-10.692l-20.636-120.615l-22.506,123.475c-1.1,6.105-6.369,9.064-12.562,9.064 C127.864,284.526,127.809,284.526,127.754,284.526z" fill="#FF7700"/>
</svg>
