<svg width="850" height="850" xmlns="http://www.w3.org/2000/svg">
  <path d="M45,125 h760 a20,20 0 0 1 20,20 v80 h-800 v-80 a20,20 0 0 1 20,-20 z" fill="#0e4a85" />
  <circle cx="775" cy="175" r="25" fill="#3286d2" />
  <circle cx="700" cy="175" r="25" fill="#3286d2" />
  <circle cx="625" cy="175" r="25" fill="#3286d2" />

  <path d="M25,225 h800 v480 a20,20 0 0 1 -20,20 h-760 a20,20 0 0 1 -20,-20 v-480 z" fill="#07305a" />

  <rect x="75" y="275" width="200" height="20" fill="#86bef5" />
  <rect x="300" y="275" width="50" height="20" fill="#86bef5" />
  <rect x="375" y="275" width="150" height="20" fill="#86bef5" />

  <rect x="75" y="320" width="150" height="20" fill="#86bef5" />
  <rect x="250" y="320" width="175" height="20" fill="#86bef5" />
  <rect x="450" y="320" width="175" height="20" fill="#86bef5" />

  <rect x="75" y="365" width="325" height="20" fill="#86bef5" />
  <rect x="425" y="365" width="50" height="20" fill="#86bef5" />

  <rect x="75" y="410" width="100" height="20" fill="#86bef5" />
  <rect x="200" y="410" width="125" height="20" fill="#86bef5" />
  <rect x="350" y="410" width="175" height="20" fill="#86bef5" />
</svg>
